<?xml version="1.0" encoding="utf-8"?>
<svg xmlns="http://www.w3.org/2000/svg" xmlns:xlink="http://www.w3.org/1999/xlink" version="1.2" width="160.00mm" height="40.00mm" viewBox="0 0 56.9055 14.2264">
<style text="style/css">

tspan { white-space: pre; }

</style>
<!-- Page: 1/1 -->
<text transform="translate(3.5566, 1.7783)" font-family="serif" font-size="2.2003" text-anchor="start" fill="currentColor">
<tspan></tspan>
</text>
<line transform="translate(3.5566, 9.8763)" stroke-linejoin="round" stroke-linecap="round" stroke-width="0.0754" stroke="currentColor" x1="0.0377" y1="-0.0000" x2="45.7034" y2="-0.0000"></line>
<line transform="translate(3.5566, 8.8763)" stroke-linejoin="round" stroke-linecap="round" stroke-width="0.0754" stroke="currentColor" x1="0.0377" y1="-0.0000" x2="45.7034" y2="-0.0000"></line>
<line transform="translate(3.5566, 7.8763)" stroke-linejoin="round" stroke-linecap="round" stroke-width="0.0754" stroke="currentColor" x1="0.0377" y1="-0.0000" x2="45.7034" y2="-0.0000"></line>
<line transform="translate(3.5566, 6.8763)" stroke-linejoin="round" stroke-linecap="round" stroke-width="0.0754" stroke="currentColor" x1="0.0377" y1="-0.0000" x2="45.7034" y2="-0.0000"></line>
<line transform="translate(3.5566, 5.8763)" stroke-linejoin="round" stroke-linecap="round" stroke-width="0.0754" stroke="currentColor" x1="0.0377" y1="-0.0000" x2="45.7034" y2="-0.0000"></line>
<rect transform="translate(3.5566, 10.8763)" x="38.3357" y="-0.0877" width="2.9831" height="0.1754" ry="0.0877" fill="currentColor"></rect>
<rect transform="translate(3.5566, 10.8763)" x="8.3705" y="-0.0877" width="2.0580" height="0.1754" ry="0.0877" fill="currentColor"></rect>
<path transform="translate(38.9852, 7.3763) scale(0.0040, -0.0040)" d="M0 0c0 32 25 57 57 57s57 -25 57 -57s-25 -57 -57 -57s-57 25 -57 57z" fill="currentColor"></path>
<path transform="translate(38.9852, 8.3763) scale(0.0040, -0.0040)" d="M0 0c0 32 25 57 57 57s57 -25 57 -57s-25 -57 -57 -57s-57 25 -57 57z" fill="currentColor"></path>
<rect transform="translate(40.0373, 7.8763)" x="0.0000" y="-2.0000" width="0.4521" height="4.0000" ry="0.0000" fill="currentColor"></rect>
<rect transform="translate(39.6681, 7.8763)" x="0.0000" y="-2.0000" width="0.1432" height="4.0000" ry="0.0000" fill="currentColor"></rect>
<rect transform="translate(48.8455, 7.8763)" x="0.0000" y="-2.0000" width="0.4521" height="4.0000" ry="0.0000" fill="currentColor"></rect>
<rect transform="translate(48.4763, 7.8763)" x="0.0000" y="-2.0000" width="0.1432" height="4.0000" ry="0.0000" fill="currentColor"></rect>
<rect transform="translate(30.8553, 7.8763)" x="0.0000" y="-2.0000" width="0.1432" height="4.0000" ry="0.0000" fill="currentColor"></rect>
<rect transform="translate(21.2911, 7.8763)" x="0.0000" y="-2.0000" width="0.1432" height="4.0000" ry="0.0000" fill="currentColor"></rect>
<a style="color:inherit;" xlink:href="textedit:24:10:32">
<path transform="translate(26.3544, 9.8763) scale(0.0040, -0.0040)" d="M316 67c0 25 -20 42 -42 42c-4 0 -9 -1 -13 -2c-31 -9 -79 -41 -117 -65s-86 -55 -107 -80c-7 -8 -10 -19 -10 -29c0 -25 20 -42 42 -42c4 0 9 1 13 2c31 9 79 41 117 65s86 55 107 80c7 8 10 19 10 29zM265 135c44 0 78 -21 78 -68c0 -19 -5 -39 -11 -57
c-12 -37 -33 -71 -65 -93c-53 -36 -114 -52 -189 -52c-44 0 -78 21 -78 68c0 19 5 39 11 57c12 37 33 71 65 93c53 36 114 52 189 52z" fill="currentColor"></path>
</a>
<a style="color:inherit;" xlink:href="textedit:27:3:25">
<path transform="translate(32.8985, 10.3763) scale(0.0040, -0.0040)" d="M215 114c-50 0 -71 -42 -71 -88c0 -79 60 -140 139 -140c50 0 70 42 70 88c0 79 -59 140 -138 140zM497 0c0 -43 -35 -74 -73 -95c-54 -29 -114 -40 -175 -40s-122 11 -176 40c-38 21 -73 52 -73 95s35 74 73 95c54 29 115 40 176 40s121 -11 175 -40
c38 -21 73 -52 73 -95z" fill="currentColor"></path>
</a>
<rect transform="translate(27.6774, 7.8763)" x="-0.0490" y="-1.5000" width="0.0980" height="3.2316" ry="0.0250" fill="currentColor"></rect>
<g transform="translate(31.8779, 4.6190)">
<path transform="scale(0.0025, -0.0025)" d="M122 503c18 0 34 -16 53 -16c15 0 29 7 42 13c1 1 3 1 4 1c7 0 12 -7 12 -17v-367c0 -48 28 -94 73 -94c8 0 12 -5 12 -11s-4 -12 -12 -12c-44 0 -87 13 -131 13s-87 -13 -131 -13c-8 0 -12 6 -12 12s4 11 12 11c45 0 73 46 73 94v245c0 12 -9 19 -17 19
c-4 0 -8 -3 -10 -7l-64 -136c-3 -6 -7 -9 -12 -9c-8 0 -16 6 -16 14c0 2 1 5 2 7l117 250c1 2 3 3 5 3z" fill="currentColor"></path>

<path transform="translate(0.7896, 0.0000) scale(0.0025, -0.0025)" d="M0 57c0 32 25 58 57 58s58 -26 58 -58s-26 -57 -58 -57s-57 25 -57 57z" fill="currentColor"></path>
</g>
<line transform="translate(30.8553, 2.8386)" stroke-linejoin="round" stroke-linecap="round" stroke-width="0.1206" stroke="currentColor" x1="8.8731" y1="-0.0000" x2="8.8731" y2="2.0000"></line>
<line transform="translate(30.8553, 2.8386)" stroke-linejoin="round" stroke-linecap="round" stroke-width="0.1206" stroke="currentColor" x1="0.0829" y1="-0.0000" x2="0.0829" y2="2.0000"></line>
<line transform="translate(30.8553, 2.8386)" stroke-linejoin="round" stroke-linecap="round" stroke-width="0.1206" stroke="currentColor" x1="0.0829" y1="-0.0000" x2="8.8731" y2="-0.0000"></line>
<a style="color:inherit;" xlink:href="textedit:28:3:25">
<path transform="translate(42.3895, 10.8763) scale(0.0040, -0.0040)" d="M215 114c-50 0 -71 -42 -71 -88c0 -79 60 -140 139 -140c50 0 70 42 70 88c0 79 -59 140 -138 140zM497 0c0 -43 -35 -74 -73 -95c-54 -29 -114 -40 -175 -40s-122 11 -176 40c-38 21 -73 52 -73 95s35 74 73 95c54 29 115 40 176 40s121 -11 175 -40
c38 -21 73 -52 73 -95z" fill="currentColor"></path>
</a>
<a style="color:inherit;" xlink:href="textedit:24:6:28">
<path transform="translate(16.7902, 9.8763) scale(0.0040, -0.0040)" d="M316 67c0 25 -20 42 -42 42c-4 0 -9 -1 -13 -2c-31 -9 -79 -41 -117 -65s-86 -55 -107 -80c-7 -8 -10 -19 -10 -29c0 -25 20 -42 42 -42c4 0 9 1 13 2c31 9 79 41 117 65s86 55 107 80c7 8 10 19 10 29zM265 135c44 0 78 -21 78 -68c0 -19 -5 -39 -11 -57
c-12 -37 -33 -71 -65 -93c-53 -36 -114 -52 -189 -52c-44 0 -78 21 -78 68c0 19 5 39 11 57c12 37 33 71 65 93c53 36 114 52 189 52z" fill="currentColor"></path>
</a>
<rect transform="translate(18.1133, 7.8763)" x="-0.0490" y="-1.5000" width="0.0980" height="3.2316" ry="0.0250" fill="currentColor"></rect>
<rect transform="translate(13.5932, 7.8763)" x="-0.0490" y="-0.5000" width="0.0980" height="3.2316" ry="0.0250" fill="currentColor"></rect>
<path transform="translate(8.5566, 7.8763) scale(0.0040, -0.0040)" d="M360 25c-51 0 -76 43 -76 77c0 39 28 78 74 78c6 0 13 0 18 -1c-29 37 -76 60 -126 60c-106 0 -113 -73 -113 -185c0 -17 1 -35 1 -54s-1 -37 -1 -54c0 -112 7 -185 113 -185c82 0 145 68 164 151c1 6 6 9 10 9c6 0 11 -4 11 -11c0 -94 -107 -171 -185 -171
c-68 0 -137 20 -184 69c-49 51 -66 122 -66 192s17 141 66 192c47 49 116 69 184 69c88 0 163 -63 178 -149c1 -5 2 -8 2 -13c0 -40 -32 -74 -70 -74z" fill="currentColor"></path>
<path transform="translate(4.3566, 8.8763) scale(0.0040, -0.0040)" d="M374 260c5 0 10 1 15 1c154 0 254 -127 254 -259c0 -76 -33 -153 -107 -208c-22 -17 -47 -29 -73 -37c3 -36 5 -72 5 -108c0 -19 0 -37 -1 -56c-7 -120 -88 -226 -206 -226c-108 0 -195 87 -195 195c0 58 53 104 112 104c54 0 95 -48 95 -104c0 -52 -43 -95 -95 -95
c-12 0 -24 4 -35 9c26 -41 70 -70 121 -70c96 0 157 93 163 193c1 18 2 35 2 53c0 32 -2 64 -5 96c-29 -5 -58 -8 -89 -8c-188 0 -333 171 -333 372c0 178 133 306 251 440c-18 63 -35 126 -42 191c-6 51 -7 102 -7 154c0 116 55 226 150 295c2 2 5 3 8 3s6 -1 8 -3
c70 -84 132 -246 132 -359c0 -144 -87 -256 -183 -365c20 -69 39 -138 55 -208zM459 -205c69 24 117 96 117 166c0 92 -69 184 -179 193c25 -117 48 -235 62 -359zM71 31c0 -136 131 -251 267 -251c28 0 55 2 82 6c-15 128 -38 247 -64 367c-79 -9 -125 -62 -125 -121
c0 -44 26 -92 82 -124c4 -4 7 -9 7 -14c0 -11 -9 -21 -20 -21c-3 0 -6 1 -9 2c-80 43 -116 114 -116 184c0 88 57 173 158 196c-14 60 -30 119 -46 178c-108 -121 -216 -242 -216 -402zM411 1050c-99 -50 -161 -151 -161 -262c0 -76 15 -137 33 -200c82 97 149 198 149 325
c0 58 -4 84 -21 137z" fill="currentColor"></path>
<a style="color:inherit;" xlink:href="textedit:24:3:25">
<path transform="translate(12.2701, 10.8763) scale(0.0040, -0.0040)" d="M316 67c0 25 -20 42 -42 42c-4 0 -9 -1 -13 -2c-31 -9 -79 -41 -117 -65s-86 -55 -107 -80c-7 -8 -10 -19 -10 -29c0 -25 20 -42 42 -42c4 0 9 1 13 2c31 9 79 41 117 65s86 55 107 80c7 8 10 19 10 29zM265 135c44 0 78 -21 78 -68c0 -19 -5 -39 -11 -57
c-12 -37 -33 -71 -65 -93c-53 -36 -114 -52 -189 -52c-44 0 -78 21 -78 68c0 19 5 39 11 57c12 37 33 71 65 93c53 36 114 52 189 52z" fill="currentColor"></path>
</a>
<g transform="translate(41.3689, 4.5976)">
<path transform="scale(0.0025, -0.0025)" d="M23 11c-1 -7 -6 -11 -11 -11c-6 0 -12 4 -12 11c0 175 235 165 235 344c0 60 -18 122 -70 122c-26 0 -51 -14 -51 -37c0 -27 35 -41 35 -68c0 -38 -30 -69 -68 -69s-69 31 -69 69c0 76 72 128 153 128c96 0 187 -56 187 -145c0 -153 -151 -159 -249 -220c9 2 17 3 26 3
c33 0 70 -11 105 -36c21 -15 46 -23 66 -23c21 0 39 9 44 29c2 6 6 9 11 9c6 0 12 -5 12 -12c0 -67 -90 -105 -138 -105c-36 0 -71 14 -96 44c-13 16 -31 22 -48 22c-30 0 -59 -20 -62 -55z" fill="currentColor"></path>

<path transform="translate(0.9176, 0.0000) scale(0.0025, -0.0025)" d="M0 57c0 32 25 58 57 58s58 -26 58 -58s-26 -57 -58 -57s-57 25 -57 57z" fill="currentColor"></path>
</g>
<line transform="translate(39.6681, 2.8386)" stroke-linejoin="round" stroke-linecap="round" stroke-width="0.1206" stroke="currentColor" x1="9.5693" y1="-0.0000" x2="9.5693" y2="2.0000"></line>
<line transform="translate(39.6681, 2.8386)" stroke-linejoin="round" stroke-linecap="round" stroke-width="0.1206" stroke="currentColor" x1="0.7611" y1="-0.0000" x2="0.7611" y2="2.0000"></line>
<line transform="translate(39.6681, 2.8386)" stroke-linejoin="round" stroke-linecap="round" stroke-width="0.1206" stroke="currentColor" x1="0.7611" y1="-0.0000" x2="9.5693" y2="-0.0000"></line>
<rect transform="translate(23.6573, 7.8763)" x="-0.0490" y="-2.5000" width="0.0980" height="3.2316" ry="0.0250" fill="currentColor"></rect>
<a style="color:inherit;" xlink:href="textedit:24:8:30">
<path transform="translate(22.3343, 8.8763) scale(0.0040, -0.0040)" d="M316 67c0 25 -20 42 -42 42c-4 0 -9 -1 -13 -2c-31 -9 -79 -41 -117 -65s-86 -55 -107 -80c-7 -8 -10 -19 -10 -29c0 -25 20 -42 42 -42c4 0 9 1 13 2c31 9 79 41 117 65s86 55 107 80c7 8 10 19 10 29zM265 135c44 0 78 -21 78 -68c0 -19 -5 -39 -11 -57
c-12 -37 -33 -71 -65 -93c-53 -36 -114 -52 -189 -52c-44 0 -78 21 -78 68c0 19 5 39 11 57c12 37 33 71 65 93c53 36 114 52 189 52z" fill="currentColor"></path>
</a>
<text transform="translate(28.4528, 12.0924)" font-family="serif" font-size="2.2003" text-anchor="start" fill="currentColor">
<tspan></tspan>
</text>
</svg>
