<?xml version="1.0" encoding="utf-8"?>
<svg xmlns="http://www.w3.org/2000/svg" xmlns:xlink="http://www.w3.org/1999/xlink" version="1.2" width="220.00mm" height="40.00mm" viewBox="0 0 78.2451 14.2264">
<style text="style/css">

tspan { white-space: pre; }

</style>
<!-- Page: 1/1 -->
<text transform="translate(3.5566, 1.7783)" font-family="serif" font-size="2.2003" text-anchor="start" fill="currentColor">
<tspan></tspan>
</text>
<line transform="translate(8.8915, 9.4668)" stroke-linejoin="round" stroke-linecap="round" stroke-width="0.0754" stroke="currentColor" x1="0.0377" y1="-0.0000" x2="61.6163" y2="-0.0000"></line>
<line transform="translate(8.8915, 8.4668)" stroke-linejoin="round" stroke-linecap="round" stroke-width="0.0754" stroke="currentColor" x1="0.0377" y1="-0.0000" x2="61.6163" y2="-0.0000"></line>
<line transform="translate(8.8915, 7.4668)" stroke-linejoin="round" stroke-linecap="round" stroke-width="0.0754" stroke="currentColor" x1="0.0377" y1="-0.0000" x2="61.6163" y2="-0.0000"></line>
<line transform="translate(8.8915, 6.4668)" stroke-linejoin="round" stroke-linecap="round" stroke-width="0.0754" stroke="currentColor" x1="0.0377" y1="-0.0000" x2="61.6163" y2="-0.0000"></line>
<line transform="translate(8.8915, 5.4668)" stroke-linejoin="round" stroke-linecap="round" stroke-width="0.0754" stroke="currentColor" x1="0.0377" y1="-0.0000" x2="61.6163" y2="-0.0000"></line>
<rect transform="translate(70.4023, 7.4668)" x="0.0000" y="-2.0000" width="0.1432" height="4.0000" ry="0.0000" fill="currentColor"></rect>
<rect transform="translate(70.0331, 7.4668)" x="0.0000" y="-2.0000" width="0.1432" height="4.0000" ry="0.0000" fill="currentColor"></rect>
<rect transform="translate(55.3070, 7.4668)" x="0.0000" y="-2.0000" width="0.1432" height="4.0000" ry="0.0000" fill="currentColor"></rect>
<rect transform="translate(41.6678, 7.4668)" x="0.0000" y="-2.0000" width="0.4521" height="4.0000" ry="0.0000" fill="currentColor"></rect>
<rect transform="translate(41.2985, 7.4668)" x="0.0000" y="-2.0000" width="0.1432" height="4.0000" ry="0.0000" fill="currentColor"></rect>
<rect transform="translate(29.7990, 7.4668)" x="0.0000" y="-2.0000" width="0.1432" height="4.0000" ry="0.0000" fill="currentColor"></rect>
<rect transform="translate(3.5566, 10.4668)" x="32.9503" y="-0.0877" width="2.0580" height="0.1754" ry="0.0877" fill="currentColor"></rect>
<rect transform="translate(3.5566, 10.4668)" x="22.7335" y="-0.0877" width="1.9587" height="0.1754" ry="0.0877" fill="currentColor"></rect>
<a style="color:inherit;" xlink:href="textedit:29:7:29">
<path transform="translate(46.1819, 6.9668) scale(0.0040, -0.0040)" d="M222 135c53 0 104 -27 104 -86c0 -71 -56 -120 -103 -148c-36 -22 -76 -36 -118 -36c-53 0 -105 27 -105 86c0 71 57 120 104 148c36 22 76 36 118 36z" fill="currentColor"></path>
</a>
<rect transform="translate(46.2308, 7.4668)" x="-0.0490" y="-0.3033" width="0.0980" height="3.3033" ry="0.0250" fill="currentColor"></rect>
<rect transform="translate(44.2768, 7.4668)" x="-0.0490" y="-2.5000" width="0.0980" height="3.3033" ry="0.0250" fill="currentColor"></rect>
<a style="color:inherit;" xlink:href="textedit:27:5:27">
<text transform="translate(39.3832, 4.4641)" font-family="serif" font-weight="bold" font-size="2.4695" text-anchor="start" fill="currentColor">
<tspan>Fine</tspan>
</text>
</a>
<a style="color:inherit;" xlink:href="textedit:29:3:25">
<path transform="translate(43.0199, 8.4668) scale(0.0040, -0.0040)" d="M222 135c53 0 104 -27 104 -86c0 -71 -56 -120 -103 -148c-36 -22 -76 -36 -118 -36c-53 0 -105 27 -105 86c0 71 57 120 104 148c36 22 76 36 118 36z" fill="currentColor"></path>
</a>
<rect transform="translate(38.1729, 7.4668)" x="-0.0490" y="-0.5000" width="0.0980" height="3.2316" ry="0.0250" fill="currentColor"></rect>
<a style="color:inherit;" xlink:href="textedit:26:8:37">
<path transform="translate(36.8499, 10.4668) scale(0.0040, -0.0040)" d="M316 67c0 25 -20 42 -42 42c-4 0 -9 -1 -13 -2c-31 -9 -79 -41 -117 -65s-86 -55 -107 -80c-7 -8 -10 -19 -10 -29c0 -25 20 -42 42 -42c4 0 9 1 13 2c31 9 79 41 117 65s86 55 107 80c7 8 10 19 10 29zM265 135c44 0 78 -21 78 -68c0 -19 -5 -39 -11 -57
c-12 -37 -33 -71 -65 -93c-53 -36 -114 -52 -189 -52c-44 0 -78 21 -78 68c0 19 5 39 11 57c12 37 33 71 65 93c53 36 114 52 189 52z" fill="currentColor"></path>
</a>
<a style="color:inherit;" xlink:href="textedit:29:9:31">
<path transform="translate(49.0991, 7.9668) scale(0.0040, -0.0040)" d="M222 135c53 0 104 -27 104 -86c0 -71 -56 -120 -103 -148c-36 -22 -76 -36 -118 -36c-53 0 -105 27 -105 86c0 71 57 120 104 148c36 22 76 36 118 36z" fill="currentColor"></path>
</a>
<a style="color:inherit;" xlink:href="textedit:29:16:38">
<text transform="translate(57.3502, 4.9264)" font-family="serif" font-weight="bold" font-size="2.4695" text-anchor="start" fill="currentColor">
<tspan>D.</tspan>
</text>
<text transform="translate(60.3615, 4.9264)" font-family="serif" font-weight="bold" font-size="2.4695" text-anchor="start" fill="currentColor">
<tspan>C.</tspan>
</text>
<text transform="translate(63.3729, 4.9264)" font-family="serif" font-weight="bold" font-size="2.4695" text-anchor="start" fill="currentColor">
<tspan>al</tspan>
</text>
<text transform="translate(65.8935, 4.9264)" font-family="serif" font-weight="bold" font-size="2.4695" text-anchor="start" fill="currentColor">
<tspan>Fine</tspan>
</text>
</a>
<a style="color:inherit;" xlink:href="textedit:29:13:35">
<path transform="translate(57.3502, 9.4668) scale(0.0040, -0.0040)" d="M215 114c-50 0 -71 -42 -71 -88c0 -79 60 -140 139 -140c50 0 70 42 70 88c0 79 -59 140 -138 140zM497 0c0 -43 -35 -74 -73 -95c-54 -29 -114 -40 -175 -40s-122 11 -176 40c-38 21 -73 52 -73 95s35 74 73 95c54 29 115 40 176 40s121 -11 175 -40
c38 -21 73 -52 73 -95z" fill="currentColor"></path>
</a>
<rect transform="translate(53.3597, 7.4668)" x="-0.0490" y="-2.5000" width="0.0980" height="3.3033" ry="0.0250" fill="currentColor"></rect>
<a style="color:inherit;" xlink:href="textedit:29:11:33">
<path transform="translate(52.1029, 8.4668) scale(0.0040, -0.0040)" d="M222 135c53 0 104 -27 104 -86c0 -71 -56 -120 -103 -148c-36 -22 -76 -36 -118 -36c-53 0 -105 27 -105 86c0 71 57 120 104 148c36 22 76 36 118 36z" fill="currentColor"></path>
</a>
<rect transform="translate(50.3559, 7.4668)" x="-0.0490" y="-3.0000" width="0.0980" height="3.3033" ry="0.0250" fill="currentColor"></rect>
<rect transform="translate(27.8734, 7.4668)" x="-0.0490" y="-0.5000" width="0.0980" height="3.3033" ry="0.0250" fill="currentColor"></rect>
<a style="color:inherit;" xlink:href="textedit:25:11:40">
<path transform="translate(26.6166, 10.4668) scale(0.0040, -0.0040)" d="M222 135c53 0 104 -27 104 -86c0 -71 -56 -120 -103 -148c-36 -22 -76 -36 -118 -36c-53 0 -105 27 -105 86c0 71 57 120 104 148c36 22 76 36 118 36z" fill="currentColor"></path>
</a>
<rect transform="translate(24.8696, 7.4668)" x="-0.0490" y="-1.0000" width="0.0980" height="3.3033" ry="0.0250" fill="currentColor"></rect>
<a style="color:inherit;" xlink:href="textedit:25:9:38">
<path transform="translate(23.6127, 9.9668) scale(0.0040, -0.0040)" d="M222 135c53 0 104 -27 104 -86c0 -71 -56 -120 -103 -148c-36 -22 -76 -36 -118 -36c-53 0 -105 27 -105 86c0 71 57 120 104 148c36 22 76 36 118 36z" fill="currentColor"></path>
</a>
<rect transform="translate(18.8619, 7.4668)" x="-0.0490" y="-1.5000" width="0.0980" height="3.3033" ry="0.0250" fill="currentColor"></rect>
<rect transform="translate(21.8657, 7.4668)" x="-0.0490" y="-1.5000" width="0.0980" height="3.3033" ry="0.0250" fill="currentColor"></rect>
<a style="color:inherit;" xlink:href="textedit:25:7:36">
<path transform="translate(20.6089, 9.4668) scale(0.0040, -0.0040)" d="M222 135c53 0 104 -27 104 -86c0 -71 -56 -120 -103 -148c-36 -22 -76 -36 -118 -36c-53 0 -105 27 -105 86c0 71 57 120 104 148c36 22 76 36 118 36z" fill="currentColor"></path>
</a>
<path transform="translate(13.8915, 7.4668) scale(0.0040, -0.0040)" d="M360 25c-51 0 -76 43 -76 77c0 39 28 78 74 78c6 0 13 0 18 -1c-29 37 -76 60 -126 60c-106 0 -113 -73 -113 -185c0 -17 1 -35 1 -54s-1 -37 -1 -54c0 -112 7 -185 113 -185c82 0 145 68 164 151c1 6 6 9 10 9c6 0 11 -4 11 -11c0 -94 -107 -171 -185 -171
c-68 0 -137 20 -184 69c-49 51 -66 122 -66 192s17 141 66 192c47 49 116 69 184 69c88 0 163 -63 178 -149c1 -5 2 -8 2 -13c0 -40 -32 -74 -70 -74z" fill="currentColor"></path>
<rect transform="translate(35.1029, 7.4668)" x="-0.0490" y="-1.0000" width="0.0980" height="3.3033" ry="0.0250" fill="currentColor"></rect>
<a style="color:inherit;" xlink:href="textedit:26:6:35">
<path transform="translate(33.8460, 9.9668) scale(0.0040, -0.0040)" d="M222 135c53 0 104 -27 104 -86c0 -71 -56 -120 -103 -148c-36 -22 -76 -36 -118 -36c-53 0 -105 27 -105 86c0 71 57 120 104 148c36 22 76 36 118 36z" fill="currentColor"></path>
</a>
<a style="color:inherit;" xlink:href="textedit:25:4:33">
<path transform="translate(17.6050, 9.4668) scale(0.0040, -0.0040)" d="M222 135c53 0 104 -27 104 -86c0 -71 -56 -120 -103 -148c-36 -22 -76 -36 -118 -36c-53 0 -105 27 -105 86c0 71 57 120 104 148c36 22 76 36 118 36z" fill="currentColor"></path>
</a>
<rect transform="translate(32.0990, 7.4668)" x="-0.0490" y="-1.5000" width="0.0980" height="3.3033" ry="0.0250" fill="currentColor"></rect>
<a style="color:inherit;" xlink:href="textedit:26:4:33">
<path transform="translate(30.8422, 9.4668) scale(0.0040, -0.0040)" d="M222 135c53 0 104 -27 104 -86c0 -71 -56 -120 -103 -148c-36 -22 -76 -36 -118 -36c-53 0 -105 27 -105 86c0 71 57 120 104 148c36 22 76 36 118 36z" fill="currentColor"></path>
</a>
<path transform="translate(9.6915, 8.4668) scale(0.0040, -0.0040)" d="M374 260c5 0 10 1 15 1c154 0 254 -127 254 -259c0 -76 -33 -153 -107 -208c-22 -17 -47 -29 -73 -37c3 -36 5 -72 5 -108c0 -19 0 -37 -1 -56c-7 -120 -88 -226 -206 -226c-108 0 -195 87 -195 195c0 58 53 104 112 104c54 0 95 -48 95 -104c0 -52 -43 -95 -95 -95
c-12 0 -24 4 -35 9c26 -41 70 -70 121 -70c96 0 157 93 163 193c1 18 2 35 2 53c0 32 -2 64 -5 96c-29 -5 -58 -8 -89 -8c-188 0 -333 171 -333 372c0 178 133 306 251 440c-18 63 -35 126 -42 191c-6 51 -7 102 -7 154c0 116 55 226 150 295c2 2 5 3 8 3s6 -1 8 -3
c70 -84 132 -246 132 -359c0 -144 -87 -256 -183 -365c20 -69 39 -138 55 -208zM459 -205c69 24 117 96 117 166c0 92 -69 184 -179 193c25 -117 48 -235 62 -359zM71 31c0 -136 131 -251 267 -251c28 0 55 2 82 6c-15 128 -38 247 -64 367c-79 -9 -125 -62 -125 -121
c0 -44 26 -92 82 -124c4 -4 7 -9 7 -14c0 -11 -9 -21 -20 -21c-3 0 -6 1 -9 2c-80 43 -116 114 -116 184c0 88 57 173 158 196c-14 60 -30 119 -46 178c-108 -121 -216 -242 -216 -402zM411 1050c-99 -50 -161 -151 -161 -262c0 -76 15 -137 33 -200c82 97 149 198 149 325
c0 58 -4 84 -21 137z" fill="currentColor"></path>
<text transform="translate(39.1225, 12.0924)" font-family="serif" font-size="2.2003" text-anchor="start" fill="currentColor">
<tspan></tspan>
</text>
</svg>
