<?xml version="1.0" encoding="utf-8"?>
<svg xmlns="http://www.w3.org/2000/svg" xmlns:xlink="http://www.w3.org/1999/xlink" version="1.2" width="240.00mm" height="120.00mm" viewBox="0 0 97.5523 48.7762">
<style text="style/css">

tspan { white-space: pre; }

</style>
<!-- Page: 1/1 -->
<text transform="translate(4.0647, 2.0323)" font-family="serif" font-size="2.2002" text-anchor="start" fill="currentColor">
<tspan></tspan>
</text>
<rect transform="translate(80.9304, 9.6527)" x="0.0000" y="-2.0000" width="0.1543" height="4.0000" ry="0.0000" fill="currentColor"></rect>
<rect transform="translate(55.8747, 9.6527)" x="0.0000" y="-2.0000" width="0.1543" height="4.0000" ry="0.0000" fill="currentColor"></rect>
<rect transform="translate(42.6301, 9.6527)" x="0.0000" y="-2.0000" width="0.1543" height="4.0000" ry="0.0000" fill="currentColor"></rect>
<rect transform="translate(30.2272, 9.6527)" x="0.0000" y="-2.0000" width="0.1543" height="4.0000" ry="0.0000" fill="currentColor"></rect>
<rect transform="translate(93.3333, 9.6527)" x="0.0000" y="-2.0000" width="0.1543" height="4.0000" ry="0.0000" fill="currentColor"></rect>
<rect transform="translate(68.5276, 9.6527)" x="0.0000" y="-2.0000" width="0.1543" height="4.0000" ry="0.0000" fill="currentColor"></rect>
<rect transform="translate(4.0647, 12.6527)" x="39.2899" y="-0.0906" width="1.9587" height="0.1812" ry="0.0906" fill="currentColor"></rect>
<line transform="translate(10.1617, 11.6527)" stroke-linejoin="round" stroke-linecap="round" stroke-width="0.0812" stroke="currentColor" x1="0.0406" y1="-0.0000" x2="83.2853" y2="-0.0000"></line>
<line transform="translate(10.1617, 10.6527)" stroke-linejoin="round" stroke-linecap="round" stroke-width="0.0812" stroke="currentColor" x1="0.0406" y1="-0.0000" x2="83.2853" y2="-0.0000"></line>
<line transform="translate(10.1617, 9.6527)" stroke-linejoin="round" stroke-linecap="round" stroke-width="0.0812" stroke="currentColor" x1="0.0406" y1="-0.0000" x2="83.2853" y2="-0.0000"></line>
<line transform="translate(10.1617, 8.6527)" stroke-linejoin="round" stroke-linecap="round" stroke-width="0.0812" stroke="currentColor" x1="0.0406" y1="-0.0000" x2="83.2853" y2="-0.0000"></line>
<line transform="translate(10.1617, 7.6527)" stroke-linejoin="round" stroke-linecap="round" stroke-width="0.0812" stroke="currentColor" x1="0.0406" y1="-0.0000" x2="83.2853" y2="-0.0000"></line>
<rect transform="translate(61.1681, 9.6527)" x="-0.0528" y="-2.5000" width="0.1056" height="3.3033" ry="0.0286" fill="currentColor"></rect>
<a style="color:inherit;" xlink:href="textedit:26:6:21">
<path transform="translate(62.9045, 10.6527) scale(0.0040, -0.0040)" d="M222 135c53 0 104 -27 104 -86c0 -71 -56 -120 -103 -148c-36 -22 -76 -36 -118 -36c-53 0 -105 27 -105 86c0 71 57 120 104 148c36 22 76 36 118 36z" fill="currentColor"></path>
</a>
<rect transform="translate(64.1575, 9.6527)" x="-0.0528" y="-2.5000" width="0.1056" height="3.3033" ry="0.0286" fill="currentColor"></rect>
<a style="color:inherit;" xlink:href="textedit:26:8:23">
<path transform="translate(65.8939, 9.6527) scale(0.0040, -0.0040)" d="M-23 -113c0 26 10 40 36 40c34 0 85 -15 130 -37l-137 164c-7 8 -10 17 -10 25c0 33 49 64 86 96c26 22 39 54 39 85c0 24 -8 47 -24 67l-39 46c-2 3 -3 6 -3 9c0 7 7 14 14 14c3 0 7 -1 10 -5l152 -182c7 -8 10 -17 10 -25c0 -33 -49 -64 -86 -96
c-26 -22 -39 -54 -39 -85c0 -24 8 -47 24 -67l87 -104c2 -3 3 -5 3 -8c0 -7 -7 -14 -14 -14c-3 0 -7 1 -10 5c-19 22 -66 43 -102 43c-40 0 -52 -29 -52 -70c0 -35 11 -75 28 -96c4 -5 0 -11 -5 -11c-2 0 -4 0 -5 2c-46 55 -93 150 -93 204z" fill="currentColor"></path>
</a>
<a style="color:inherit;" xlink:href="textedit:30:4:33">
<path transform="translate(69.5785, 10.6527) scale(0.0040, -0.0040)" d="M222 135c53 0 104 -27 104 -86c0 -71 -56 -120 -103 -148c-36 -22 -76 -36 -118 -36c-53 0 -105 27 -105 86c0 71 57 120 104 148c36 22 76 36 118 36z" fill="currentColor"></path>
</a>
<a style="color:inherit;" xlink:href="textedit:29:4:33">
<path transform="translate(68.6047, 4.9222) scale(0.0050, -0.0050)" d="M-204 -43c0 16 12 28 28 28s29 -12 29 -28s-13 -29 -29 -29s-28 13 -28 29zM147 43c0 16 13 29 29 29s28 -13 28 -29s-12 -28 -28 -28s-29 12 -29 28zM-33 -227c0 33 16 57 52 57c38 0 55 -30 55 -60c0 -27 -14 -54 -39 -62c8 -31 37 -54 71 -54c40 0 70 36 70 78
c0 100 -85 168 -176 219l-193 -326h-57l206 350c-105 57 -206 132 -206 245c0 85 63 155 144 155c79 0 139 -68 139 -148c0 -33 -16 -57 -52 -57c-38 0 -55 30 -55 60c0 27 14 54 39 62c-8 31 -37 54 -71 54c-40 0 -70 -36 -70 -78c0 -100 85 -168 176 -219l193 326h57
l-206 -350c105 -57 206 -132 206 -245c0 -85 -63 -155 -144 -155c-79 0 -139 68 -139 148z" fill="currentColor"></path>
</a>
<rect transform="translate(70.8315, 9.6527)" x="-0.0528" y="-2.5000" width="0.1056" height="3.3033" ry="0.0286" fill="currentColor"></rect>
<a style="color:inherit;" xlink:href="textedit:25:8:23">
<path transform="translate(52.6493, 11.1527) scale(0.0040, -0.0040)" d="M222 135c53 0 104 -27 104 -86c0 -71 -56 -120 -103 -148c-36 -22 -76 -36 -118 -36c-53 0 -105 27 -105 86c0 71 57 120 104 148c36 22 76 36 118 36z" fill="currentColor"></path>
</a>
<rect transform="translate(53.9023, 9.6527)" x="-0.0528" y="-2.0000" width="0.1056" height="3.3033" ry="0.0286" fill="currentColor"></rect>
<a style="color:inherit;" xlink:href="textedit:26:2:17">
<path transform="translate(56.9256, 10.6527) scale(0.0040, -0.0040)" d="M222 135c53 0 104 -27 104 -86c0 -71 -56 -120 -103 -148c-36 -22 -76 -36 -118 -36c-53 0 -105 27 -105 86c0 71 57 120 104 148c36 22 76 36 118 36z" fill="currentColor"></path>
</a>
<rect transform="translate(58.1786, 9.6527)" x="-0.0528" y="-2.5000" width="0.1056" height="3.3033" ry="0.0286" fill="currentColor"></rect>
<a style="color:inherit;" xlink:href="textedit:26:4:19">
<path transform="translate(59.9151, 10.6527) scale(0.0040, -0.0040)" d="M222 135c53 0 104 -27 104 -86c0 -71 -56 -120 -103 -148c-36 -22 -76 -36 -118 -36c-53 0 -105 27 -105 86c0 71 57 120 104 148c36 22 76 36 118 36z" fill="currentColor"></path>
</a>
<a style="color:inherit;" xlink:href="textedit:31:6:35">
<path transform="translate(84.7208, 12.1527) scale(0.0040, -0.0040)" d="M222 135c53 0 104 -27 104 -86c0 -71 -56 -120 -103 -148c-36 -22 -76 -36 -118 -36c-53 0 -105 27 -105 86c0 71 57 120 104 148c36 22 76 36 118 36z" fill="currentColor"></path>
</a>
<rect transform="translate(85.9738, 9.6527)" x="-0.0528" y="-1.0000" width="0.1056" height="3.3033" ry="0.0286" fill="currentColor"></rect>
<a style="color:inherit;" xlink:href="textedit:31:8:37">
<path transform="translate(87.7102, 12.1527) scale(0.0040, -0.0040)" d="M222 135c53 0 104 -27 104 -86c0 -71 -56 -120 -103 -148c-36 -22 -76 -36 -118 -36c-53 0 -105 27 -105 86c0 71 57 120 104 148c36 22 76 36 118 36z" fill="currentColor"></path>
</a>
<rect transform="translate(88.9632, 9.6527)" x="-0.0528" y="-1.0000" width="0.1056" height="3.3033" ry="0.0286" fill="currentColor"></rect>
<a style="color:inherit;" xlink:href="textedit:31:10:39">
<path transform="translate(90.6997, 9.6527) scale(0.0040, -0.0040)" d="M-23 -113c0 26 10 40 36 40c34 0 85 -15 130 -37l-137 164c-7 8 -10 17 -10 25c0 33 49 64 86 96c26 22 39 54 39 85c0 24 -8 47 -24 67l-39 46c-2 3 -3 6 -3 9c0 7 7 14 14 14c3 0 7 -1 10 -5l152 -182c7 -8 10 -17 10 -25c0 -33 -49 -64 -86 -96
c-26 -22 -39 -54 -39 -85c0 -24 8 -47 24 -67l87 -104c2 -3 3 -5 3 -8c0 -7 -7 -14 -14 -14c-3 0 -7 1 -10 5c-19 22 -66 43 -102 43c-40 0 -52 -29 -52 -70c0 -35 11 -75 28 -96c4 -5 0 -11 -5 -11c-2 0 -4 0 -5 2c-46 55 -93 150 -93 204z" fill="currentColor"></path>
</a>
<a style="color:inherit;" xlink:href="textedit:30:8:37">
<path transform="translate(75.3074, 11.6527) scale(0.0040, -0.0040)" d="M222 135c53 0 104 -27 104 -86c0 -71 -56 -120 -103 -148c-36 -22 -76 -36 -118 -36c-53 0 -105 27 -105 86c0 71 57 120 104 148c36 22 76 36 118 36z" fill="currentColor"></path>
</a>
<a style="color:inherit;" xlink:href="textedit:30:6:35">
<path transform="translate(72.3179, 11.6527) scale(0.0040, -0.0040)" d="M222 135c53 0 104 -27 104 -86c0 -71 -56 -120 -103 -148c-36 -22 -76 -36 -118 -36c-53 0 -105 27 -105 86c0 71 57 120 104 148c36 22 76 36 118 36z" fill="currentColor"></path>
</a>
<rect transform="translate(73.5709, 9.6527)" x="-0.0528" y="-1.5000" width="0.1056" height="3.3033" ry="0.0286" fill="currentColor"></rect>
<rect transform="translate(76.5604, 9.6527)" x="-0.0528" y="-1.5000" width="0.1056" height="3.3033" ry="0.0286" fill="currentColor"></rect>
<a style="color:inherit;" xlink:href="textedit:30:10:39">
<path transform="translate(78.2968, 9.6527) scale(0.0040, -0.0040)" d="M-23 -113c0 26 10 40 36 40c34 0 85 -15 130 -37l-137 164c-7 8 -10 17 -10 25c0 33 49 64 86 96c26 22 39 54 39 85c0 24 -8 47 -24 67l-39 46c-2 3 -3 6 -3 9c0 7 7 14 14 14c3 0 7 -1 10 -5l152 -182c7 -8 10 -17 10 -25c0 -33 -49 -64 -86 -96
c-26 -22 -39 -54 -39 -85c0 -24 8 -47 24 -67l87 -104c2 -3 3 -5 3 -8c0 -7 -7 -14 -14 -14c-3 0 -7 1 -10 5c-19 22 -66 43 -102 43c-40 0 -52 -29 -52 -70c0 -35 11 -75 28 -96c4 -5 0 -11 -5 -11c-2 0 -4 0 -5 2c-46 55 -93 150 -93 204z" fill="currentColor"></path>
</a>
<a style="color:inherit;" xlink:href="textedit:31:4:33">
<path transform="translate(81.9814, 11.1527) scale(0.0040, -0.0040)" d="M222 135c53 0 104 -27 104 -86c0 -71 -56 -120 -103 -148c-36 -22 -76 -36 -118 -36c-53 0 -105 27 -105 86c0 71 57 120 104 148c36 22 76 36 118 36z" fill="currentColor"></path>
</a>
<rect transform="translate(83.2344, 9.6527)" x="-0.0528" y="-2.0000" width="0.1056" height="3.3033" ry="0.0286" fill="currentColor"></rect>
<a style="color:inherit;" xlink:href="textedit:23:9:24">
<path transform="translate(27.5936, 9.6527) scale(0.0040, -0.0040)" d="M-23 -113c0 26 10 40 36 40c34 0 85 -15 130 -37l-137 164c-7 8 -10 17 -10 25c0 33 49 64 86 96c26 22 39 54 39 85c0 24 -8 47 -24 67l-39 46c-2 3 -3 6 -3 9c0 7 7 14 14 14c3 0 7 -1 10 -5l152 -182c7 -8 10 -17 10 -25c0 -33 -49 -64 -86 -96
c-26 -22 -39 -54 -39 -85c0 -24 8 -47 24 -67l87 -104c2 -3 3 -5 3 -8c0 -7 -7 -14 -14 -14c-3 0 -7 1 -10 5c-19 22 -66 43 -102 43c-40 0 -52 -29 -52 -70c0 -35 11 -75 28 -96c4 -5 0 -11 -5 -11c-2 0 -4 0 -5 2c-46 55 -93 150 -93 204z" fill="currentColor"></path>
</a>
<a style="color:inherit;" xlink:href="textedit:24:2:17">
<path transform="translate(31.2781, 11.1527) scale(0.0040, -0.0040)" d="M222 135c53 0 104 -27 104 -86c0 -71 -56 -120 -103 -148c-36 -22 -76 -36 -118 -36c-53 0 -105 27 -105 86c0 71 57 120 104 148c36 22 76 36 118 36z" fill="currentColor"></path>
</a>
<rect transform="translate(32.5311, 9.6527)" x="-0.0528" y="-2.0000" width="0.1056" height="3.3033" ry="0.0286" fill="currentColor"></rect>
<rect transform="translate(50.9129, 9.6527)" x="-0.0528" y="-1.5000" width="0.1056" height="3.3033" ry="0.0286" fill="currentColor"></rect>
<a style="color:inherit;" xlink:href="textedit:24:4:19">
<path transform="translate(34.0176, 12.1527) scale(0.0040, -0.0040)" d="M222 135c53 0 104 -27 104 -86c0 -71 -56 -120 -103 -148c-36 -22 -76 -36 -118 -36c-53 0 -105 27 -105 86c0 71 57 120 104 148c36 22 76 36 118 36z" fill="currentColor"></path>
</a>
<rect transform="translate(35.2706, 9.6527)" x="-0.0528" y="-1.0000" width="0.1056" height="3.3033" ry="0.0286" fill="currentColor"></rect>
<a style="color:inherit;" xlink:href="textedit:23:2:17">
<path transform="translate(18.8752, 10.6527) scale(0.0040, -0.0040)" d="M222 135c53 0 104 -27 104 -86c0 -71 -56 -120 -103 -148c-36 -22 -76 -36 -118 -36c-53 0 -105 27 -105 86c0 71 57 120 104 148c36 22 76 36 118 36z" fill="currentColor"></path>
</a>
<path transform="translate(10.9617, 10.6527) scale(0.0040, -0.0040)" d="M374 260c5 0 10 1 15 1c154 0 254 -127 254 -259c0 -76 -33 -153 -107 -208c-22 -17 -47 -29 -73 -37c3 -36 5 -72 5 -108c0 -19 0 -37 -1 -56c-7 -120 -88 -226 -206 -226c-108 0 -195 87 -195 195c0 58 53 104 112 104c54 0 95 -48 95 -104c0 -52 -43 -95 -95 -95
c-12 0 -24 4 -35 9c26 -41 70 -70 121 -70c96 0 157 93 163 193c1 18 2 35 2 53c0 32 -2 64 -5 96c-29 -5 -58 -8 -89 -8c-188 0 -333 171 -333 372c0 178 133 306 251 440c-18 63 -35 126 -42 191c-6 51 -7 102 -7 154c0 116 55 226 150 295c2 2 5 3 8 3s6 -1 8 -3
c70 -84 132 -246 132 -359c0 -144 -87 -256 -183 -365c20 -69 39 -138 55 -208zM459 -205c69 24 117 96 117 166c0 92 -69 184 -179 193c25 -117 48 -235 62 -359zM71 31c0 -136 131 -251 267 -251c28 0 55 2 82 6c-15 128 -38 247 -64 367c-79 -9 -125 -62 -125 -121
c0 -44 26 -92 82 -124c4 -4 7 -9 7 -14c0 -11 -9 -21 -20 -21c-3 0 -6 1 -9 2c-80 43 -116 114 -116 184c0 88 57 173 158 196c-14 60 -30 119 -46 178c-108 -121 -216 -242 -216 -402zM411 1050c-99 -50 -161 -151 -161 -262c0 -76 15 -137 33 -200c82 97 149 198 149 325
c0 58 -4 84 -21 137z" fill="currentColor"></path>
<path transform="translate(15.1617, 9.6527) scale(0.0040, -0.0040)" d="M360 25c-51 0 -76 43 -76 77c0 39 28 78 74 78c6 0 13 0 18 -1c-29 37 -76 60 -126 60c-106 0 -113 -73 -113 -185c0 -17 1 -35 1 -54s-1 -37 -1 -54c0 -112 7 -185 113 -185c82 0 145 68 164 151c1 6 6 9 10 9c6 0 11 -4 11 -11c0 -94 -107 -171 -185 -171
c-68 0 -137 20 -184 69c-49 51 -66 122 -66 192s17 141 66 192c47 49 116 69 184 69c88 0 163 -63 178 -149c1 -5 2 -8 2 -13c0 -40 -32 -74 -70 -74z" fill="currentColor"></path>
<rect transform="translate(20.1283, 9.6527)" x="-0.0528" y="-2.5000" width="0.1056" height="3.3033" ry="0.0286" fill="currentColor"></rect>
<a style="color:inherit;" xlink:href="textedit:23:5:20">
<path transform="translate(21.6147, 11.6527) scale(0.0040, -0.0040)" d="M222 135c53 0 104 -27 104 -86c0 -71 -56 -120 -103 -148c-36 -22 -76 -36 -118 -36c-53 0 -105 27 -105 86c0 71 57 120 104 148c36 22 76 36 118 36z" fill="currentColor"></path>
</a>
<rect transform="translate(22.8677, 9.6527)" x="-0.0528" y="-1.5000" width="0.1056" height="3.3033" ry="0.0286" fill="currentColor"></rect>
<a style="color:inherit;" xlink:href="textedit:23:7:22">
<path transform="translate(24.6041, 11.6527) scale(0.0040, -0.0040)" d="M222 135c53 0 104 -27 104 -86c0 -71 -56 -120 -103 -148c-36 -22 -76 -36 -118 -36c-53 0 -105 27 -105 86c0 71 57 120 104 148c36 22 76 36 118 36z" fill="currentColor"></path>
</a>
<rect transform="translate(25.8571, 9.6527)" x="-0.0528" y="-1.5000" width="0.1056" height="3.3033" ry="0.0286" fill="currentColor"></rect>
<rect transform="translate(44.9340, 9.6527)" x="-0.0528" y="-0.5000" width="0.1056" height="3.3033" ry="0.0286" fill="currentColor"></rect>
<a style="color:inherit;" xlink:href="textedit:25:2:17">
<path transform="translate(43.6810, 12.6527) scale(0.0040, -0.0040)" d="M222 135c53 0 104 -27 104 -86c0 -71 -56 -120 -103 -148c-36 -22 -76 -36 -118 -36c-53 0 -105 27 -105 86c0 71 57 120 104 148c36 22 76 36 118 36z" fill="currentColor"></path>
</a>
<a style="color:inherit;" xlink:href="textedit:25:4:19">
<path transform="translate(46.6704, 12.1527) scale(0.0040, -0.0040)" d="M222 135c53 0 104 -27 104 -86c0 -71 -56 -120 -103 -148c-36 -22 -76 -36 -118 -36c-53 0 -105 27 -105 86c0 71 57 120 104 148c36 22 76 36 118 36z" fill="currentColor"></path>
</a>
<rect transform="translate(47.9234, 9.6527)" x="-0.0528" y="-1.0000" width="0.1056" height="3.3033" ry="0.0286" fill="currentColor"></rect>
<a style="color:inherit;" xlink:href="textedit:25:6:21">
<path transform="translate(49.6599, 11.6527) scale(0.0040, -0.0040)" d="M222 135c53 0 104 -27 104 -86c0 -71 -56 -120 -103 -148c-36 -22 -76 -36 -118 -36c-53 0 -105 27 -105 86c0 71 57 120 104 148c36 22 76 36 118 36z" fill="currentColor"></path>
</a>
<rect transform="translate(38.2600, 9.6527)" x="-0.0528" y="-1.0000" width="0.1056" height="3.3033" ry="0.0286" fill="currentColor"></rect>
<a style="color:inherit;" xlink:href="textedit:24:6:21">
<path transform="translate(37.0070, 12.1527) scale(0.0040, -0.0040)" d="M222 135c53 0 104 -27 104 -86c0 -71 -56 -120 -103 -148c-36 -22 -76 -36 -118 -36c-53 0 -105 27 -105 86c0 71 57 120 104 148c36 22 76 36 118 36z" fill="currentColor"></path>
</a>
<a style="color:inherit;" xlink:href="textedit:24:8:23">
<path transform="translate(39.9964, 9.6527) scale(0.0040, -0.0040)" d="M-23 -113c0 26 10 40 36 40c34 0 85 -15 130 -37l-137 164c-7 8 -10 17 -10 25c0 33 49 64 86 96c26 22 39 54 39 85c0 24 -8 47 -24 67l-39 46c-2 3 -3 6 -3 9c0 7 7 14 14 14c3 0 7 -1 10 -5l152 -182c7 -8 10 -17 10 -25c0 -33 -49 -64 -86 -96
c-26 -22 -39 -54 -39 -85c0 -24 8 -47 24 -67l87 -104c2 -3 3 -5 3 -8c0 -7 -7 -14 -14 -14c-3 0 -7 1 -10 5c-19 22 -66 43 -102 43c-40 0 -52 -29 -52 -70c0 -35 11 -75 28 -96c4 -5 0 -11 -5 -11c-2 0 -4 0 -5 2c-46 55 -93 150 -93 204z" fill="currentColor"></path>
</a>
<line transform="translate(4.0647, 23.6527)" stroke-linejoin="round" stroke-linecap="round" stroke-width="0.0812" stroke="currentColor" x1="0.0406" y1="-0.0000" x2="89.3823" y2="-0.0000"></line>
<line transform="translate(4.0647, 22.6527)" stroke-linejoin="round" stroke-linecap="round" stroke-width="0.0812" stroke="currentColor" x1="0.0406" y1="-0.0000" x2="89.3823" y2="-0.0000"></line>
<line transform="translate(4.0647, 21.6527)" stroke-linejoin="round" stroke-linecap="round" stroke-width="0.0812" stroke="currentColor" x1="0.0406" y1="-0.0000" x2="89.3823" y2="-0.0000"></line>
<line transform="translate(4.0647, 20.6527)" stroke-linejoin="round" stroke-linecap="round" stroke-width="0.0812" stroke="currentColor" x1="0.0406" y1="-0.0000" x2="89.3823" y2="-0.0000"></line>
<line transform="translate(4.0647, 19.6527)" stroke-linejoin="round" stroke-linecap="round" stroke-width="0.0812" stroke="currentColor" x1="0.0406" y1="-0.0000" x2="89.3823" y2="-0.0000"></line>
<rect transform="translate(4.0647, 24.6527)" x="5.4735" y="-0.0906" width="1.9587" height="0.1812" ry="0.0906" fill="currentColor"></rect>
<rect transform="translate(69.7419, 21.6527)" x="0.0000" y="-2.0000" width="0.1543" height="4.0000" ry="0.0000" fill="currentColor"></rect>
<rect transform="translate(43.8426, 21.6527)" x="0.0000" y="-2.0000" width="0.1543" height="4.0000" ry="0.0000" fill="currentColor"></rect>
<rect transform="translate(56.4964, 21.6527)" x="0.0000" y="-2.0000" width="0.1543" height="4.0000" ry="0.0000" fill="currentColor"></rect>
<rect transform="translate(30.6187, 21.6527)" x="0.0000" y="-2.0000" width="0.1543" height="4.0000" ry="0.0000" fill="currentColor"></rect>
<rect transform="translate(93.3333, 21.6527)" x="0.0000" y="-2.0000" width="0.1543" height="4.0000" ry="0.0000" fill="currentColor"></rect>
<rect transform="translate(92.9353, 21.6527)" x="0.0000" y="-2.0000" width="0.1543" height="4.0000" ry="0.0000" fill="currentColor"></rect>
<rect transform="translate(22.5235, 21.6527)" x="0.0000" y="-2.0000" width="0.1543" height="4.0000" ry="0.0000" fill="currentColor"></rect>
<a style="color:inherit;" xlink:href="textedit:38:5:27">
<path transform="translate(60.5370, 23.6527) scale(0.0040, -0.0040)" d="M222 135c53 0 104 -27 104 -86c0 -71 -56 -120 -103 -148c-36 -22 -76 -36 -118 -36c-53 0 -105 27 -105 86c0 71 57 120 104 148c36 22 76 36 118 36z" fill="currentColor"></path>
</a>
<rect transform="translate(61.7900, 21.6527)" x="-0.0528" y="-1.5000" width="0.1056" height="3.3033" ry="0.0286" fill="currentColor"></rect>
<a style="color:inherit;" xlink:href="textedit:38:7:29">
<path transform="translate(63.5267, 23.6527) scale(0.0040, -0.0040)" d="M222 135c53 0 104 -27 104 -86c0 -71 -56 -120 -103 -148c-36 -22 -76 -36 -118 -36c-53 0 -105 27 -105 86c0 71 57 120 104 148c36 22 76 36 118 36z" fill="currentColor"></path>
</a>
<rect transform="translate(64.7797, 21.6527)" x="-0.0528" y="-1.5000" width="0.1056" height="3.3033" ry="0.0286" fill="currentColor"></rect>
<rect transform="translate(52.1259, 21.6527)" x="-0.0528" y="-2.0000" width="0.1056" height="3.3033" ry="0.0286" fill="currentColor"></rect>
<a style="color:inherit;" xlink:href="textedit:37:5:27">
<path transform="translate(47.8832, 23.6527) scale(0.0040, -0.0040)" d="M222 135c53 0 104 -27 104 -86c0 -71 -56 -120 -103 -148c-36 -22 -76 -36 -118 -36c-53 0 -105 27 -105 86c0 71 57 120 104 148c36 22 76 36 118 36z" fill="currentColor"></path>
</a>
<rect transform="translate(49.1362, 21.6527)" x="-0.0528" y="-1.5000" width="0.1056" height="3.3033" ry="0.0286" fill="currentColor"></rect>
<a style="color:inherit;" xlink:href="textedit:37:7:29">
<path transform="translate(50.8729, 23.1527) scale(0.0040, -0.0040)" d="M222 135c53 0 104 -27 104 -86c0 -71 -56 -120 -103 -148c-36 -22 -76 -36 -118 -36c-53 0 -105 27 -105 86c0 71 57 120 104 148c36 22 76 36 118 36z" fill="currentColor"></path>
</a>
<a style="color:inherit;" xlink:href="textedit:37:9:31">
<path transform="translate(53.8625, 21.6527) scale(0.0040, -0.0040)" d="M-23 -113c0 26 10 40 36 40c34 0 85 -15 130 -37l-137 164c-7 8 -10 17 -10 25c0 33 49 64 86 96c26 22 39 54 39 85c0 24 -8 47 -24 67l-39 46c-2 3 -3 6 -3 9c0 7 7 14 14 14c3 0 7 -1 10 -5l152 -182c7 -8 10 -17 10 -25c0 -33 -49 -64 -86 -96
c-26 -22 -39 -54 -39 -85c0 -24 8 -47 24 -67l87 -104c2 -3 3 -5 3 -8c0 -7 -7 -14 -14 -14c-3 0 -7 1 -10 5c-19 22 -66 43 -102 43c-40 0 -52 -29 -52 -70c0 -35 11 -75 28 -96c4 -5 0 -11 -5 -11c-2 0 -4 0 -5 2c-46 55 -93 150 -93 204z" fill="currentColor"></path>
</a>
<a style="color:inherit;" xlink:href="textedit:38:3:25">
<path transform="translate(57.5473, 23.6527) scale(0.0040, -0.0040)" d="M222 135c53 0 104 -27 104 -86c0 -71 -56 -120 -103 -148c-36 -22 -76 -36 -118 -36c-53 0 -105 27 -105 86c0 71 57 120 104 148c36 22 76 36 118 36z" fill="currentColor"></path>
</a>
<rect transform="translate(58.8004, 21.6527)" x="-0.0528" y="-1.5000" width="0.1056" height="3.3033" ry="0.0286" fill="currentColor"></rect>
<a style="color:inherit;" xlink:href="textedit:39:7:29">
<path transform="translate(76.7722, 22.6527) scale(0.0040, -0.0040)" d="M222 135c53 0 104 -27 104 -86c0 -71 -56 -120 -103 -148c-36 -22 -76 -36 -118 -36c-53 0 -105 27 -105 86c0 71 57 120 104 148c36 22 76 36 118 36z" fill="currentColor"></path>
</a>
<rect transform="translate(78.0252, 21.6527)" x="-0.0528" y="-2.5000" width="0.1056" height="3.3033" ry="0.0286" fill="currentColor"></rect>
<a style="color:inherit;" xlink:href="textedit:39:9:31">
<path transform="translate(79.7619, 21.6527) scale(0.0040, -0.0040)" d="M-23 -113c0 26 10 40 36 40c34 0 85 -15 130 -37l-137 164c-7 8 -10 17 -10 25c0 33 49 64 86 96c26 22 39 54 39 85c0 24 -8 47 -24 67l-39 46c-2 3 -3 6 -3 9c0 7 7 14 14 14c3 0 7 -1 10 -5l152 -182c7 -8 10 -17 10 -25c0 -33 -49 -64 -86 -96
c-26 -22 -39 -54 -39 -85c0 -24 8 -47 24 -67l87 -104c2 -3 3 -5 3 -8c0 -7 -7 -14 -14 -14c-3 0 -7 1 -10 5c-19 22 -66 43 -102 43c-40 0 -52 -29 -52 -70c0 -35 11 -75 28 -96c4 -5 0 -11 -5 -11c-2 0 -4 0 -5 2c-46 55 -93 150 -93 204z" fill="currentColor"></path>
</a>
<a style="color:inherit;" xlink:href="textedit:40:3:25">
<text transform="translate(79.7619, 25.8361)" font-family="serif" font-weight="bold" font-size="2.4694" text-anchor="start" fill="currentColor">
<tspan>D.</tspan>
</text>
<text transform="translate(82.7519, 25.8361)" font-family="serif" font-weight="bold" font-size="2.4694" text-anchor="start" fill="currentColor">
<tspan>S.</tspan>
</text>
<text transform="translate(85.3273, 25.8361)" font-family="serif" font-weight="bold" font-size="2.4694" text-anchor="start" fill="currentColor">
<tspan>al</tspan>
</text>
<text transform="translate(87.8540, 25.8361)" font-family="serif" font-weight="bold" font-size="2.4694" text-anchor="start" fill="currentColor">
<tspan>Coda</tspan>
</text>
</a>
<rect transform="translate(11.1177, 21.6527)" x="-0.0528" y="-0.5000" width="0.1056" height="3.3033" ry="0.0286" fill="currentColor"></rect>
<a style="color:inherit;" xlink:href="textedit:34:3:25">
<path transform="translate(9.8647, 24.6527) scale(0.0040, -0.0040)" d="M222 135c53 0 104 -27 104 -86c0 -71 -56 -120 -103 -148c-36 -22 -76 -36 -118 -36c-53 0 -105 27 -105 86c0 71 57 120 104 148c36 22 76 36 118 36z" fill="currentColor"></path>
</a>
<rect transform="translate(67.7693, 21.6527)" x="-0.0528" y="-1.5000" width="0.1056" height="3.3033" ry="0.0286" fill="currentColor"></rect>
<a style="color:inherit;" xlink:href="textedit:39:3:25">
<path transform="translate(70.7929, 23.6527) scale(0.0040, -0.0040)" d="M222 135c53 0 104 -27 104 -86c0 -71 -56 -120 -103 -148c-36 -22 -76 -36 -118 -36c-53 0 -105 27 -105 86c0 71 57 120 104 148c36 22 76 36 118 36z" fill="currentColor"></path>
</a>
<rect transform="translate(72.0459, 21.6527)" x="-0.0528" y="-1.5000" width="0.1056" height="3.3033" ry="0.0286" fill="currentColor"></rect>
<a style="color:inherit;" xlink:href="textedit:38:9:31">
<path transform="translate(66.5163, 23.6527) scale(0.0040, -0.0040)" d="M222 135c53 0 104 -27 104 -86c0 -71 -56 -120 -103 -148c-36 -22 -76 -36 -118 -36c-53 0 -105 27 -105 86c0 71 57 120 104 148c36 22 76 36 118 36z" fill="currentColor"></path>
</a>
<a style="color:inherit;" xlink:href="textedit:39:5:27">
<path transform="translate(73.7825, 23.1527) scale(0.0040, -0.0040)" d="M222 135c53 0 104 -27 104 -86c0 -71 -56 -120 -103 -148c-36 -22 -76 -36 -118 -36c-53 0 -105 27 -105 86c0 71 57 120 104 148c36 22 76 36 118 36z" fill="currentColor"></path>
</a>
<rect transform="translate(75.0356, 21.6527)" x="-0.0528" y="-2.0000" width="0.1056" height="3.3033" ry="0.0286" fill="currentColor"></rect>
<a style="color:inherit;" xlink:href="textedit:34:9:31">
<path transform="translate(19.3336, 22.6527) scale(0.0040, -0.0040)" d="M222 135c53 0 104 -27 104 -86c0 -71 -56 -120 -103 -148c-36 -22 -76 -36 -118 -36c-53 0 -105 27 -105 86c0 71 57 120 104 148c36 22 76 36 118 36z" fill="currentColor"></path>
</a>
<rect transform="translate(20.5867, 21.6527)" x="-0.0528" y="-2.5000" width="0.1056" height="3.3033" ry="0.0286" fill="currentColor"></rect>
<a style="color:inherit;" xlink:href="textedit:35:3:25">
<path transform="translate(24.5662, 23.6527) scale(0.0040, -0.0040)" d="M215 114c-50 0 -71 -42 -71 -88c0 -79 60 -140 139 -140c50 0 70 42 70 88c0 79 -59 140 -138 140zM497 0c0 -43 -35 -74 -73 -95c-54 -29 -114 -40 -175 -40s-122 11 -176 40c-38 21 -73 52 -73 95s35 74 73 95c54 29 115 40 176 40s121 -11 175 -40
c38 -21 73 -52 73 -95z" fill="currentColor"></path>
</a>
<rect transform="translate(17.5970, 21.6527)" x="-0.0528" y="-2.5000" width="0.1056" height="3.3033" ry="0.0286" fill="currentColor"></rect>
<a style="color:inherit;" xlink:href="textedit:36:3:25">
<path transform="translate(31.6697, 24.1527) scale(0.0040, -0.0040)" d="M222 135c53 0 104 -27 104 -86c0 -71 -56 -120 -103 -148c-36 -22 -76 -36 -118 -36c-53 0 -105 27 -105 86c0 71 57 120 104 148c36 22 76 36 118 36z" fill="currentColor"></path>
</a>
<a style="color:inherit;" xlink:href="textedit:32:4:33">
<path transform="translate(7.4297, 16.5490) scale(0.0050, -0.0050)" d="M13 -338c0 -7 -6 -12 -13 -12s-13 5 -13 12v89c-99 9 -149 120 -153 236h-88c-7 0 -13 6 -13 13s6 13 13 13h88c4 116 54 227 153 236v89c0 7 6 12 13 12s13 -5 13 -12v-89c99 -9 149 -120 153 -236h88c7 0 13 -6 13 -13s-6 -13 -13 -13h-88c-4 -116 -54 -227 -153 -236
v-89zM13 -13v-210c74 11 80 114 80 210h-80zM13 13h80c0 96 -6 199 -80 210v-210zM-13 -13h-80c0 -96 6 -199 80 -210v210zM-13 13v210c-74 -11 -80 -114 -80 -210h80z" fill="currentColor"></path>
</a>
<text transform="translate(3.1867, 18.5877)" font-family="serif" font-size="1.7461" text-anchor="start" fill="currentColor">
<tspan>7</tspan>
</text>
<path transform="translate(4.8647, 22.6527) scale(0.0040, -0.0040)" d="M374 260c5 0 10 1 15 1c154 0 254 -127 254 -259c0 -76 -33 -153 -107 -208c-22 -17 -47 -29 -73 -37c3 -36 5 -72 5 -108c0 -19 0 -37 -1 -56c-7 -120 -88 -226 -206 -226c-108 0 -195 87 -195 195c0 58 53 104 112 104c54 0 95 -48 95 -104c0 -52 -43 -95 -95 -95
c-12 0 -24 4 -35 9c26 -41 70 -70 121 -70c96 0 157 93 163 193c1 18 2 35 2 53c0 32 -2 64 -5 96c-29 -5 -58 -8 -89 -8c-188 0 -333 171 -333 372c0 178 133 306 251 440c-18 63 -35 126 -42 191c-6 51 -7 102 -7 154c0 116 55 226 150 295c2 2 5 3 8 3s6 -1 8 -3
c70 -84 132 -246 132 -359c0 -144 -87 -256 -183 -365c20 -69 39 -138 55 -208zM459 -205c69 24 117 96 117 166c0 92 -69 184 -179 193c25 -117 48 -235 62 -359zM71 31c0 -136 131 -251 267 -251c28 0 55 2 82 6c-15 128 -38 247 -64 367c-79 -9 -125 -62 -125 -121
c0 -44 26 -92 82 -124c4 -4 7 -9 7 -14c0 -11 -9 -21 -20 -21c-3 0 -6 1 -9 2c-80 43 -116 114 -116 184c0 88 57 173 158 196c-14 60 -30 119 -46 178c-108 -121 -216 -242 -216 -402zM411 1050c-99 -50 -161 -151 -161 -262c0 -76 15 -137 33 -200c82 97 149 198 149 325
c0 58 -4 84 -21 137z" fill="currentColor"></path>
<a style="color:inherit;" xlink:href="textedit:34:5:27">
<path transform="translate(13.1043, 23.6527) scale(0.0040, -0.0040)" d="M222 135c53 0 104 -27 104 -86c0 -71 -56 -120 -103 -148c-36 -22 -76 -36 -118 -36c-53 0 -105 27 -105 86c0 71 57 120 104 148c36 22 76 36 118 36z" fill="currentColor"></path>
</a>
<rect transform="translate(14.3573, 21.6527)" x="-0.0528" y="-1.5000" width="0.1056" height="3.3033" ry="0.0286" fill="currentColor"></rect>
<a style="color:inherit;" xlink:href="textedit:34:7:29">
<path transform="translate(16.3440, 22.6527) scale(0.0040, -0.0040)" d="M222 135c53 0 104 -27 104 -86c0 -71 -56 -120 -103 -148c-36 -22 -76 -36 -118 -36c-53 0 -105 27 -105 86c0 71 57 120 104 148c36 22 76 36 118 36z" fill="currentColor"></path>
</a>
<a style="color:inherit;" xlink:href="textedit:36:6:28">
<path transform="translate(34.6593, 24.1527) scale(0.0040, -0.0040)" d="M222 135c53 0 104 -27 104 -86c0 -71 -56 -120 -103 -148c-36 -22 -76 -36 -118 -36c-53 0 -105 27 -105 86c0 71 57 120 104 148c36 22 76 36 118 36z" fill="currentColor"></path>
</a>
<rect transform="translate(35.9123, 21.6527)" x="-0.0528" y="-1.0000" width="0.1056" height="3.3033" ry="0.0286" fill="currentColor"></rect>
<a style="color:inherit;" xlink:href="textedit:37:3:25">
<path transform="translate(44.8935, 24.1527) scale(0.0040, -0.0040)" d="M222 135c53 0 104 -27 104 -86c0 -71 -56 -120 -103 -148c-36 -22 -76 -36 -118 -36c-53 0 -105 27 -105 86c0 71 57 120 104 148c36 22 76 36 118 36z" fill="currentColor"></path>
</a>
<rect transform="translate(46.1466, 21.6527)" x="-0.0528" y="-1.0000" width="0.1056" height="3.3033" ry="0.0286" fill="currentColor"></rect>
<a style="color:inherit;" xlink:href="textedit:36:8:30">
<path transform="translate(37.6490, 24.1527) scale(0.0040, -0.0040)" d="M222 135c53 0 104 -27 104 -86c0 -71 -56 -120 -103 -148c-36 -22 -76 -36 -118 -36c-53 0 -105 27 -105 86c0 71 57 120 104 148c36 22 76 36 118 36z" fill="currentColor"></path>
</a>
<rect transform="translate(38.9020, 21.6527)" x="-0.0528" y="-1.0000" width="0.1056" height="3.3033" ry="0.0286" fill="currentColor"></rect>
<rect transform="translate(41.8916, 21.6527)" x="-0.0528" y="-1.0000" width="0.1056" height="3.3033" ry="0.0286" fill="currentColor"></rect>
<a style="color:inherit;" xlink:href="textedit:36:10:32">
<path transform="translate(40.6386, 24.1527) scale(0.0040, -0.0040)" d="M222 135c53 0 104 -27 104 -86c0 -71 -56 -120 -103 -148c-36 -22 -76 -36 -118 -36c-53 0 -105 27 -105 86c0 71 57 120 104 148c36 22 76 36 118 36z" fill="currentColor"></path>
</a>
<rect transform="translate(32.9227, 21.6527)" x="-0.0528" y="-1.0000" width="0.1056" height="3.3033" ry="0.0286" fill="currentColor"></rect>
<line transform="translate(4.0647, 35.6527)" stroke-linejoin="round" stroke-linecap="round" stroke-width="0.0812" stroke="currentColor" x1="0.0406" y1="-0.0000" x2="27.5015" y2="-0.0000"></line>
<line transform="translate(4.0647, 34.6527)" stroke-linejoin="round" stroke-linecap="round" stroke-width="0.0812" stroke="currentColor" x1="0.0406" y1="-0.0000" x2="27.5015" y2="-0.0000"></line>
<line transform="translate(4.0647, 33.6527)" stroke-linejoin="round" stroke-linecap="round" stroke-width="0.0812" stroke="currentColor" x1="0.0406" y1="-0.0000" x2="27.5015" y2="-0.0000"></line>
<line transform="translate(4.0647, 32.6527)" stroke-linejoin="round" stroke-linecap="round" stroke-width="0.0812" stroke="currentColor" x1="0.0406" y1="-0.0000" x2="27.5015" y2="-0.0000"></line>
<line transform="translate(4.0647, 31.6527)" stroke-linejoin="round" stroke-linecap="round" stroke-width="0.0812" stroke="currentColor" x1="0.0406" y1="-0.0000" x2="27.5015" y2="-0.0000"></line>
<rect transform="translate(31.1194, 33.6527)" x="0.0000" y="-2.0000" width="0.4873" height="4.0000" ry="0.0000" fill="currentColor"></rect>
<rect transform="translate(30.7214, 33.6527)" x="0.0000" y="-2.0000" width="0.1543" height="4.0000" ry="0.0000" fill="currentColor"></rect>
<rect transform="translate(22.5803, 33.6527)" x="0.0000" y="-2.0000" width="0.1543" height="4.0000" ry="0.0000" fill="currentColor"></rect>
<rect transform="translate(4.0647, 36.6527)" x="20.0728" y="-0.0906" width="2.9831" height="0.1812" ry="0.0906" fill="currentColor"></rect>
<rect transform="translate(4.0647, 36.6527)" x="5.4735" y="-0.0906" width="1.9587" height="0.1812" ry="0.0906" fill="currentColor"></rect>
<a style="color:inherit;" xlink:href="textedit:44:7:22">
<path transform="translate(16.3724, 34.6527) scale(0.0040, -0.0040)" d="M222 135c53 0 104 -27 104 -86c0 -71 -56 -120 -103 -148c-36 -22 -76 -36 -118 -36c-53 0 -105 27 -105 86c0 71 57 120 104 148c36 22 76 36 118 36z" fill="currentColor"></path>
</a>
<a style="color:inherit;" xlink:href="textedit:45:2:17">
<path transform="translate(24.6346, 36.6527) scale(0.0040, -0.0040)" d="M215 114c-50 0 -71 -42 -71 -88c0 -79 60 -140 139 -140c50 0 70 42 70 88c0 79 -59 140 -138 140zM497 0c0 -43 -35 -74 -73 -95c-54 -29 -114 -40 -175 -40s-122 11 -176 40c-38 21 -73 52 -73 95s35 74 73 95c54 29 115 40 176 40s121 -11 175 -40
c38 -21 73 -52 73 -95z" fill="currentColor"></path>
</a>
<rect transform="translate(20.6292, 33.6527)" x="-0.0528" y="-2.5000" width="0.1056" height="3.3033" ry="0.0286" fill="currentColor"></rect>
<a style="color:inherit;" xlink:href="textedit:44:9:24">
<path transform="translate(19.3762, 34.6527) scale(0.0040, -0.0040)" d="M222 135c53 0 104 -27 104 -86c0 -71 -56 -120 -103 -148c-36 -22 -76 -36 -118 -36c-53 0 -105 27 -105 86c0 71 57 120 104 148c36 22 76 36 118 36z" fill="currentColor"></path>
</a>
<rect transform="translate(17.6254, 33.6527)" x="-0.0528" y="-2.5000" width="0.1056" height="3.3033" ry="0.0286" fill="currentColor"></rect>
<rect transform="translate(14.3715, 33.6527)" x="-0.0528" y="-1.5000" width="0.1056" height="3.3033" ry="0.0286" fill="currentColor"></rect>
<a style="color:inherit;" xlink:href="textedit:44:5:20">
<path transform="translate(13.1185, 35.6527) scale(0.0040, -0.0040)" d="M222 135c53 0 104 -27 104 -86c0 -71 -56 -120 -103 -148c-36 -22 -76 -36 -118 -36c-53 0 -105 27 -105 86c0 71 57 120 104 148c36 22 76 36 118 36z" fill="currentColor"></path>
</a>
<rect transform="translate(11.1177, 33.6527)" x="-0.0528" y="-0.5000" width="0.1056" height="3.3033" ry="0.0286" fill="currentColor"></rect>
<a style="color:inherit;" xlink:href="textedit:44:2:17">
<path transform="translate(9.8647, 36.6527) scale(0.0040, -0.0040)" d="M222 135c53 0 104 -27 104 -86c0 -71 -56 -120 -103 -148c-36 -22 -76 -36 -118 -36c-53 0 -105 27 -105 86c0 71 57 120 104 148c36 22 76 36 118 36z" fill="currentColor"></path>
</a>
<path transform="translate(4.8647, 34.6527) scale(0.0040, -0.0040)" d="M374 260c5 0 10 1 15 1c154 0 254 -127 254 -259c0 -76 -33 -153 -107 -208c-22 -17 -47 -29 -73 -37c3 -36 5 -72 5 -108c0 -19 0 -37 -1 -56c-7 -120 -88 -226 -206 -226c-108 0 -195 87 -195 195c0 58 53 104 112 104c54 0 95 -48 95 -104c0 -52 -43 -95 -95 -95
c-12 0 -24 4 -35 9c26 -41 70 -70 121 -70c96 0 157 93 163 193c1 18 2 35 2 53c0 32 -2 64 -5 96c-29 -5 -58 -8 -89 -8c-188 0 -333 171 -333 372c0 178 133 306 251 440c-18 63 -35 126 -42 191c-6 51 -7 102 -7 154c0 116 55 226 150 295c2 2 5 3 8 3s6 -1 8 -3
c70 -84 132 -246 132 -359c0 -144 -87 -256 -183 -365c20 -69 39 -138 55 -208zM459 -205c69 24 117 96 117 166c0 92 -69 184 -179 193c25 -117 48 -235 62 -359zM71 31c0 -136 131 -251 267 -251c28 0 55 2 82 6c-15 128 -38 247 -64 367c-79 -9 -125 -62 -125 -121
c0 -44 26 -92 82 -124c4 -4 7 -9 7 -14c0 -11 -9 -21 -20 -21c-3 0 -6 1 -9 2c-80 43 -116 114 -116 184c0 88 57 173 158 196c-14 60 -30 119 -46 178c-108 -121 -216 -242 -216 -402zM411 1050c-99 -50 -161 -151 -161 -262c0 -76 15 -137 33 -200c82 97 149 198 149 325
c0 58 -4 84 -21 137z" fill="currentColor"></path>
<text transform="translate(2.3087, 30.5877)" font-family="serif" font-size="1.7461" text-anchor="start" fill="currentColor">
<tspan>13</tspan>
</text>
<a style="color:inherit;" xlink:href="textedit:43:2:17">
<path transform="translate(7.4297, 28.5490) scale(0.0050, -0.0050)" d="M13 -338c0 -7 -6 -12 -13 -12s-13 5 -13 12v89c-99 9 -149 120 -153 236h-88c-7 0 -13 6 -13 13s6 13 13 13h88c4 116 54 227 153 236v89c0 7 6 12 13 12s13 -5 13 -12v-89c99 -9 149 -120 153 -236h88c7 0 13 -6 13 -13s-6 -13 -13 -13h-88c-4 -116 -54 -227 -153 -236
v-89zM13 -13v-210c74 11 80 114 80 210h-80zM13 13h80c0 96 -6 199 -80 210v-210zM-13 -13h-80c0 -96 6 -199 80 -210v210zM-13 13v210c-74 -11 -80 -114 -80 -210h80z" fill="currentColor"></path>
</a>
<text transform="translate(48.7762, 46.3373)" font-family="serif" font-size="2.2002" text-anchor="start" fill="currentColor">
<tspan></tspan>
</text>
</svg>
